<svg xmlns="http://www.w3.org/2000/svg" width="32" height="32" viewBox="0 0 32 32">
  <defs>
    <linearGradient id="gradient" x1="0%" y1="0%" x2="100%" y2="100%">
      <stop offset="0%" stop-color="#1168bd"/>
      <stop offset="100%" stop-color="#4b9bea"/>
    </linearGradient>
  </defs>
  <circle cx="16" cy="16" r="15" fill="white" stroke="url(#gradient)" stroke-width="1"/>
  <path d="M9,16 C9,11 12,8 16,8 C20,8 23,11 23,14 C23,19 20,22 16,22 C14.5,22 13.5,21.5 13,20.5 L13,24 L20,24 L20,26 L9,26 L9,16 Z" fill="url(#gradient)"/>
  <path d="M11,13 C11,14.5 12,16 14.5,16 C17,16 18,14.5 18,13 C18,11.5 17,10 14.5,10 C12,10 11,11.5 11,13 Z M13,13 C13,12 13.5,11.5 14.5,11.5 C15.5,11.5 16,12 16,13 C16,14 15.5,14.5 14.5,14.5 C13.5,14.5 13,14 13,13 Z" fill="white"/>
</svg>