<svg xmlns="http://www.w3.org/2000/svg" width="100" height="100" viewBox="0 0 100 100">
  <defs>
    <linearGradient id="gradient" x1="0%" y1="0%" x2="100%" y2="100%">
      <stop offset="0%" stop-color="#1168bd"/>
      <stop offset="100%" stop-color="#4b9bea"/>
    </linearGradient>
  </defs>
  <circle cx="50" cy="50" r="45" fill="white" stroke="url(#gradient)" stroke-width="3"/>
  <path d="M30,50 C30,35 40,25 50,25 C60,25 70,35 70,45 C70,60 60,70 50,70 C45,70 42,68 40,65 L40,75 L60,75 L60,80 L30,80 L30,50 Z" fill="url(#gradient)"/>
  <path d="M35,40 C35,45 38,50 45,50 C52,50 55,45 55,40 C55,35 52,30 45,30 C38,30 35,35 35,40 Z M40,40 C40,37 42,35 45,35 C48,35 50,37 50,40 C50,43 48,45 45,45 C42,45 40,43 40,40 Z" fill="white"/>
</svg>